<?xml version="1.0" standalone="no"?>
<!DOCTYPE svg PUBLIC "-//W3C//DTD SVG 20010904//EN"
 "http://www.w3.org/TR/2001/REC-SVG-20010904/DTD/svg10.dtd">
<svg version="1.0" xmlns="http://www.w3.org/2000/svg"
 width="104.000000pt" height="19.000000pt" viewBox="0 0 104.000000 19.000000"
 preserveAspectRatio="xMidYMid meet">

<g transform="translate(0.000000,19.000000) scale(0.100000,-0.100000)"
fill="#000000" stroke="none">
<path d="M0 95 l0 -95 30 0 c28 0 30 3 30 35 0 31 3 35 25 35 20 0 25 5 25 25
0 20 -5 25 -25 25 -14 0 -25 5 -25 10 0 6 14 10 30 10 25 0 30 4 30 25 0 24
-3 25 -60 25 l-60 0 0 -95z m110 70 c0 -10 -10 -15 -30 -15 -23 0 -30 -4 -30
-20 0 -15 7 -20 25 -20 16 0 25 -6 25 -15 0 -9 -9 -15 -25 -15 -22 0 -25 -4
-25 -35 0 -28 -4 -35 -20 -35 -18 0 -20 7 -20 85 l0 85 50 0 c38 0 50 -4 50
-15z"/>
<path d="M270 96 l0 -96 30 0 c22 0 30 5 30 18 1 16 1 16 11 -1 15 -25 55 -22
64 6 l8 22 4 -22 c6 -31 63 -34 63 -3 l0 20 20 -20 c16 -16 33 -20 80 -20 l60
0 0 50 c0 28 5 50 10 50 6 0 10 -17 10 -38 0 -21 5 -43 12 -50 18 -18 68 -15
68 3 0 8 4 15 9 15 5 0 14 -7 21 -15 18 -22 70 -19 97 7 l23 21 0 -21 c0 -18
6 -22 29 -22 28 0 30 2 33 47 4 66 28 70 28 4 0 -50 1 -51 30 -51 l30 0 0 63
c0 72 -10 87 -57 87 -26 0 -33 4 -33 20 0 16 -7 20 -30 20 -28 0 -30 -2 -30
-41 0 -41 0 -41 -18 -19 -22 28 -84 30 -113 4 -17 -16 -19 -16 -19 -1 0 10 -4
17 -9 17 -5 0 -11 9 -14 20 -7 28 -53 27 -60 0 -5 -18 -13 -21 -71 -19 -52 2
-71 -2 -86 -16 -20 -18 -20 -17 -20 18 0 35 -2 37 -34 37 -31 0 -36 -4 -52
-45 -9 -25 -20 -45 -23 -45 -4 0 -14 19 -22 43 -14 36 -20 42 -47 45 l-32 3 0
-95z m307 -12 c7 -18 -17 -38 -31 -24 -11 11 -1 40 14 40 6 0 13 -7 17 -16z
m163 -9 c0 -14 -4 -25 -10 -25 -5 0 -10 11 -10 25 0 14 5 25 10 25 6 0 10 -11
10 -25z m121 15 c16 0 29 -4 29 -10 0 -5 -13 -10 -29 -10 -17 0 -33 -5 -36
-10 -9 -15 -25 -2 -25 22 0 14 5 18 16 14 9 -3 29 -6 45 -6z"/>
<path d="M120 95 c0 -24 2 -25 65 -25 63 0 65 1 65 25 0 24 -2 25 -65 25 -63
0 -65 -1 -65 -25z m120 0 c0 -12 -13 -15 -55 -15 -42 0 -55 3 -55 15 0 12 13
15 55 15 42 0 55 -3 55 -15z"/>
</g>
</svg>
